# xmcd CD database file
#
# Track frame offsets:
#	150
#	17473
#	35644
#
# Disc length: 729 seconds
#
# Revision: 1
# Processed by: cddbd v1.5.2PL0 Copyright (c) Steve Scherf et al.
# Submitted via: CDex 1.70beta2
#
DISCID=1902d703
DTITLE=One Wonders - Demo
DYEAR=2003
DGENRE=Rock
TTITLE0=Between Love and Fear
TTITLE1=Lost
TTITLE2=Bliss
EXTD=
EXTT0=
EXTT1=
EXTT2=
PLAYORDER=
